<svg xmlns="http://www.w3.org/2000/svg" width="20" height="21" viewBox="0 0 20 21"><defs><style>.a{fill:#fff;}</style></defs><path class="a" d="M2,6l6.99,7H2v3h9.99l7,7,1.26-1.25-17-17Zm18.5,7H22v3H20.5ZM18,13h1.5v3H18Zm.85-8.12a3.323,3.323,0,0,0,1-2.38h-1.5A1.852,1.852,0,0,1,16.5,4.35v1.5a4.021,4.021,0,0,1,4,4.07V12H22V9.92A5.557,5.557,0,0,0,18.85,4.88ZM14.5,8.7h1.53A1.927,1.927,0,0,1,18,10.75V12h1.5V10.41a3.319,3.319,0,0,0-3.47-3.16H14.5a1.986,1.986,0,0,1-1.85-2A1.769,1.769,0,0,1,14.5,3.5V2a3.35,3.35,0,1,0,0,6.7ZM17,15.93V13H14.07Z" transform="translate(-2 -2)"/></svg>