<svg xmlns="http://www.w3.org/2000/svg" width="20" height="21" viewBox="0 0 20 17"><defs><style>.a{fill:#fff;}</style></defs><path class="a" d="M2,16H17v3H2Zm18.5,0H22v3H20.5ZM18,16h1.5v3H18Zm.85-8.27A3.345,3.345,0,0,0,16.5,2V3.5a1.85,1.85,0,1,1,0,3.7V8.7a4.021,4.021,0,0,1,4,4.07V15H22V12.76a5.554,5.554,0,0,0-3.15-5.03ZM16.03,10.2H14.5a1.986,1.986,0,0,1-1.85-2A1.769,1.769,0,0,1,14.5,6.45V4.95a3.35,3.35,0,1,0,0,6.7h1.53A1.927,1.927,0,0,1,18,13.7V15h1.5V13.36A3.312,3.312,0,0,0,16.03,10.2Z" transform="translate(-2 -2)"/></svg>